<?xml version="1.0" standalone="no"?>
<!DOCTYPE svg PUBLIC "-//W3C//DTD SVG 20010904//EN"
 "http://www.w3.org/TR/2001/REC-SVG-20010904/DTD/svg10.dtd">
<svg version="1.0" xmlns="http://www.w3.org/2000/svg"
 width="300.000000pt" height="126.000000pt" viewBox="0 0 300.000000 126.000000"
 preserveAspectRatio="xMidYMid meet">

<g transform="translate(0.000000,126.000000) scale(0.100000,-0.100000)"
fill="#000000" stroke="none">
<path d="M10 785 l0 -475 1490 0 1490 0 0 475 0 475 -1490 0 -1490 0 0 -475z
m858 -2 l2 -443 -415 0 -415 0 0 445 0 445 413 -2 412 -3 3 -442z m421 118 c8
-5 11 -16 8 -25 -5 -13 -22 -16 -82 -16 -68 0 -75 -2 -75 -20 0 -16 8 -19 62
-22 50 -2 63 -6 66 -20 3 -16 -5 -18 -62 -18 -63 0 -66 -1 -66 -25 0 -23 3
-24 77 -27 65 -3 78 -6 81 -20 3 -16 -7 -18 -97 -18 l-101 0 0 104 c0 91 2
105 18 109 32 8 157 7 171 -2z m109 -84 l3 -86 77 -3 c64 -3 77 -6 80 -21 3
-16 -5 -17 -95 -15 l-98 3 -3 94 c-3 102 1 125 21 119 8 -3 13 -33 15 -91z
m284 46 l47 -46 44 48 c65 72 77 62 77 -63 0 -102 -10 -133 -37 -111 -8 8 -13
35 -13 78 l0 66 -31 -38 c-17 -20 -35 -37 -39 -37 -5 0 -24 16 -42 36 l-33 36
-5 -73 c-4 -57 -8 -74 -20 -74 -12 0 -16 19 -18 99 -3 99 0 126 15 126 4 0 29
-21 55 -47z m401 33 c50 -21 72 -52 72 -101 0 -78 -79 -128 -163 -105 -56 15
-87 52 -87 105 0 85 92 138 178 101z m236 -63 l71 -77 0 72 c0 73 10 93 35 72
23 -19 21 -192 -1 -211 -15 -12 -25 -5 -90 65 l-74 79 0 -64 c0 -69 -13 -97
-37 -78 -9 8 -13 40 -13 109 0 139 9 142 109 33z m354 63 c51 -21 72 -52 71
-102 -1 -54 -30 -90 -86 -104 -84 -23 -163 27 -163 105 0 85 92 138 178 101z"/>
<path d="M200 1040 c-19 -19 -20 -33 -20 -269 0 -230 1 -251 19 -272 19 -24
21 -24 255 -27 147 -2 243 1 254 7 25 13 33 43 18 73 -11 23 -14 23 -221 28
l-210 5 0 65 0 65 175 5 175 5 9 26 c23 66 -11 79 -210 79 l-155 0 3 58 3 57
210 6 c116 3 211 6 213 7 1 1 7 14 13 28 7 20 6 32 -6 50 l-15 24 -245 0
c-232 0 -246 -1 -265 -20z"/>
<path d="M1976 849 c-56 -44 -22 -124 54 -124 50 0 80 27 80 71 0 39 -38 74
-80 74 -15 0 -39 -9 -54 -21z"/>
<path d="M2566 849 c-56 -44 -22 -124 54 -124 50 0 80 27 80 71 0 39 -38 74
-80 74 -15 0 -39 -9 -54 -21z"/>
<path d="M875 201 c-8 -15 3 -31 21 -31 9 0 14 7 12 17 -4 20 -24 28 -33 14z"/>
<path d="M1260 180 c0 -25 -4 -30 -25 -30 -30 0 -45 -26 -45 -77 0 -49 14 -63
62 -63 l38 0 0 100 c0 82 -3 100 -15 100 -10 0 -15 -10 -15 -30z m-2 -103 c2
-27 -1 -37 -11 -37 -17 0 -30 41 -21 65 11 27 29 11 32 -28z"/>
<path d="M1808 152 c-6 -84 1 -142 18 -142 11 0 14 21 14 100 0 78 -3 100 -14
100 -9 0 -15 -17 -18 -58z"/>
<path d="M1870 190 c0 -11 7 -20 15 -20 8 0 15 9 15 20 0 11 -7 20 -15 20 -8
0 -15 -9 -15 -20z"/>
<path d="M780 165 c0 -8 -4 -15 -10 -15 -5 0 -10 -7 -10 -15 0 -8 5 -15 10
-15 6 0 10 -16 10 -36 0 -19 5 -44 10 -55 13 -23 60 -26 60 -4 0 8 -7 15 -15
15 -21 0 -24 71 -4 78 12 5 11 32 -1 32 -5 0 -10 7 -10 15 0 8 -9 15 -20 15
-11 0 -20 -7 -20 -15z"/>
<path d="M870 80 c0 -63 2 -70 20 -70 18 0 20 7 20 70 0 63 -2 70 -20 70 -18
0 -20 -7 -20 -70z"/>
<path d="M952 138 c-16 -16 -16 -100 0 -116 19 -19 66 -15 78 7 14 27 13 31
-10 31 -11 0 -20 -4 -20 -10 0 -5 -7 -10 -15 -10 -31 0 -15 29 18 32 24 2 33
8 35 24 6 42 -56 72 -86 42z m48 -28 c0 -5 -7 -10 -15 -10 -8 0 -15 5 -15 10
0 6 7 10 15 10 8 0 15 -4 15 -10z"/>
<path d="M1060 81 c0 -64 2 -71 20 -71 18 0 20 7 20 55 0 42 3 55 15 55 12 0
15 -13 15 -55 0 -43 3 -55 15 -55 13 0 15 12 13 68 l-3 67 -47 3 -48 3 0 -70z"/>
<path d="M1332 138 c-7 -7 -12 -18 -12 -25 0 -16 27 -17 32 -1 3 7 11 9 24 4
17 -7 14 -10 -19 -27 -32 -17 -38 -25 -35 -47 3 -25 7 -27 51 -30 l47 -3 0 58
c0 65 -11 83 -50 83 -14 0 -31 -5 -38 -12z m58 -78 c0 -13 -28 -25 -38 -16 -3
4 0 11 8 16 20 13 30 12 30 0z"/>
<path d="M1562 138 c-7 -7 -12 -33 -12 -58 0 -52 13 -70 50 -70 14 0 31 5 38
12 18 18 15 94 -4 112 -18 19 -55 21 -72 4z m54 -43 c8 -31 -2 -58 -19 -53
-14 5 -21 42 -13 64 8 22 25 17 32 -11z"/>
<path d="M1670 80 c0 -63 2 -70 20 -70 18 0 20 7 20 55 0 42 3 55 15 55 12 0
15 -13 15 -55 0 -49 2 -55 20 -55 18 0 21 6 19 47 -4 81 -12 93 -64 93 l-45 0
0 -70z"/>
<path d="M1870 80 c0 -56 3 -70 15 -70 12 0 15 14 15 70 0 56 -3 70 -15 70
-12 0 -15 -14 -15 -70z"/>
<path d="M1930 80 c0 -63 2 -70 20 -70 18 0 20 7 20 55 0 42 3 55 15 55 12 0
15 -13 15 -55 0 -47 3 -55 18 -55 17 0 19 7 16 59 -1 33 -5 64 -9 70 -3 6 -26
11 -51 11 l-44 0 0 -70z"/>
<path d="M2072 138 c-17 -17 -15 -103 2 -117 20 -17 67 -10 80 11 14 23 0 35
-24 20 -26 -16 -40 -15 -40 3 0 10 10 15 30 15 36 0 48 21 32 56 -13 27 -58
34 -80 12z m48 -28 c0 -5 -7 -10 -15 -10 -8 0 -15 5 -15 10 0 6 7 10 15 10 8
0 15 -4 15 -10z"/>
</g>
</svg>
